<?xml version="1.0" encoding="UTF-8" standalone="no"?>
<!-- Created with matplotlib (http://matplotlib.org/) -->

<svg
   xmlns:dc="http://purl.org/dc/elements/1.1/"
   xmlns:cc="http://creativecommons.org/ns#"
   xmlns:rdf="http://www.w3.org/1999/02/22-rdf-syntax-ns#"
   xmlns:svg="http://www.w3.org/2000/svg"
   xmlns="http://www.w3.org/2000/svg"
   xmlns:sodipodi="http://sodipodi.sourceforge.net/DTD/sodipodi-0.dtd"
   xmlns:inkscape="http://www.inkscape.org/namespaces/inkscape"
   height="10mm"
   version="1.1"
   viewBox="0 0 28.346458 28.346457"
   width="10mm"
   id="svg2"
   inkscape:version="0.91 r13725"
   sodipodi:docname="czjzekMAS.svg"
   inkscape:export-filename="/media/HDD/ssnake/ssnake/src/Icons/czjzekMAS.png"
   inkscape:export-xdpi="162"
   inkscape:export-ydpi="162">
  <metadata
     id="metadata272">
    <rdf:RDF>
      <cc:Work
         rdf:about="">
        <dc:format>image/svg+xml</dc:format>
        <dc:type
           rdf:resource="http://purl.org/dc/dcmitype/StillImage" />
        <dc:title />
      </cc:Work>
    </rdf:RDF>
  </metadata>
  <sodipodi:namedview
     pagecolor="#ffffff"
     bordercolor="#666666"
     borderopacity="1"
     objecttolerance="10"
     gridtolerance="10"
     guidetolerance="10"
     inkscape:pageopacity="0"
     inkscape:pageshadow="2"
     inkscape:window-width="1440"
     inkscape:window-height="851"
     id="namedview270"
     showgrid="false"
     inkscape:zoom="1.8541911"
     inkscape:cx="-56.391294"
     inkscape:cy="73.895446"
     inkscape:window-x="0"
     inkscape:window-y="0"
     inkscape:window-maximized="1"
     inkscape:current-layer="svg2"
     units="mm" />
  <defs
     id="defs4"
     style="stroke-linecap:butt;stroke-linejoin:round">
    <style
       type="text/css"
       id="style6">
*{stroke-linecap:butt;stroke-linejoin:round;}
  </style>
  </defs>
  <rect
     style="opacity:1;fill:#ffffff;fill-opacity:1;fill-rule:nonzero;stroke:none;stroke-width:1;stroke-linecap:butt;stroke-linejoin:miter;stroke-miterlimit:4;stroke-dasharray:none;stroke-opacity:1"
     id="rect4245"
     width="28.34646"
     height="28.346457"
     x="-4.7308239e-07"
     y="8.2601716e-08" />
  <g
     id="LineCollection_2"
     style="stroke-width:30.18770027;stroke-linecap:butt;stroke-linejoin:round;stroke-miterlimit:4;stroke-dasharray:none;stroke:#e97b00;stroke-opacity:1"
     transform="matrix(0.1161468,0,0,0.1161468,-10.140475,2.6056793)">
    <path
       clip-path="url(#p40b8626951)"
       d="m 102.33697,28.8 1.46119,15.781818 1.46407,13.527273 1.74218,13.85445 1.58192,10.94555 1.85895,11.272727 1.92666,10.220112 1.65722,7.81625 2.1513,9.01818 1.81229,6.76364 2.01554,6.76364 2.25712,6.76363 2.18349,5.8446 2.25775,5.42813 2.43884,5.25178 2.68377,5.15182 2.68377,4.58568 2.68376,4.09732 2.68377,3.67428 2.68377,3.30202 2.93988,3.24619 3.0986,3.05064 3.3547,2.93056 3.35471,2.59219 3.35471,2.29508 3.35471,2.03284 3.35471,1.80023 4.02565,1.88807 4.02565,1.62465 4.02566,1.38835 4.02565,1.17851 4.69659,1.13443 4.69659,0.90082 4.6966,0.68554 5.36753,0.54266 5.36754,0.30197 5.36753,0.0733 5.36754,-0.14781 5.36753,-0.36516 5.36754,-0.58237 5.36753,-0.80294 5.36754,-1.03745 5.36753,-1.27737 5.36754,-1.54279 4.69659,-1.58266 4.69659,-1.82082 4.6966,-2.08627 4.02565,-2.02327 4.02565,-2.26887 4.02565,-2.54679 4.02565,-2.86376 3.35471,-2.66383 3.47102,-3.06221 3.2384,-3.19953 3.23298,-3.5641 2.8055,-3.47495 2.68377,-3.70677 2.68376,-4.17821 2.49477,-4.42189 2.22363,-4.50909 1.99102,-4.64184 1.63327,-4.37634 1.72144,-5.42284 1.34189,-5.04597 0.70391,-3.05847 0.88866,-4.50908 1.03773,-6.76364 0.7244,-6.83335 0.42826,-6.69393 0.17512,-6.763631 -0.0581,-6.763636 -0.2707,-6.763637 -0.4651,-6.763636 -0.64271,-6.763636 -1.10819,-9.018182 -1.41324,-9.293017 -1.55144,-8.743347 -1.80615,-9.018182 -1.4768,-6.763636 0,0"
       style="fill:none;stroke:#e97b00;stroke-width:30.18770027;stroke-linecap:butt;stroke-linejoin:round;stroke-miterlimit:4;stroke-dasharray:none;stroke-opacity:1"
       id="path20"
       inkscape:connector-curvature="0" />
  </g>
  <g
     id="LineCollection_5"
     style="stroke-width:30.18770027;stroke-linecap:butt;stroke-linejoin:round;stroke-miterlimit:4;stroke-dasharray:none;stroke:#0050ba;stroke-opacity:1"
     transform="matrix(0.1161468,0,0,0.1161468,-10.140475,2.6056793)">
    <path
       clip-path="url(#p40b8626951)"
       d="m 142.56561,28.8 2.01154,10.104667 1.80029,7.931697 1.71487,6.763636 1.905,6.763636 2.12725,6.763637 2.38853,6.763636 2.14102,5.421405 2.01282,4.622088 2.01283,4.213686 2.68377,5.054088 2.01282,3.416966 2.83874,4.326308 2.5288,3.41888 2.78244,3.34476 2.58509,2.74177 2.68377,2.51072 2.68377,2.19495 2.68376,1.90153 2.68377,1.62369 2.68377,1.3595 2.90263,1.19511 2.46491,0.78921 2.68376,0.63792 2.68377,0.41022 2.68377,0.1823 2.68377,-0.0473 2.68376,-0.28012 2.68377,-0.51759 2.68377,-0.76124 2.68377,-1.02602 2.68376,-1.30329 2.01283,-1.18086 2.68377,-1.86092 2.68376,-2.238 2.01283,-1.95746 2.01282,-2.24016 2.01283,-2.571 2.01283,-2.96268 2.01282,-3.43484 2.01283,-4.078835 1.34188,-3.182248 1.43229,-3.94071 1.36202,-4.509091 1.23134,-5.067542 0.77649,-3.950639 0.7045,-4.509091 0.5348,-4.509091 0.51905,-6.763637 0.22129,-6.763636 -0.0402,-6.763636 -0.27233,-6.763637 -0.47898,-6.763636 -0.42447,-4.509091 0,0"
       style="fill:none;stroke:#0050ba;stroke-width:30.18770027;stroke-linecap:butt;stroke-linejoin:round;stroke-miterlimit:4;stroke-dasharray:none;stroke-opacity:1"
       id="path29"
       inkscape:connector-curvature="0" />
  </g>
  <defs
     id="defs265">
    <clipPath
       id="p40b8626951"
       style="stroke-linecap:butt;stroke-linejoin:round">
      <rect
         height="223.2"
         width="334.79999"
         x="54"
         y="28.799999"
         id="rect268"
         style="stroke-linecap:butt;stroke-linejoin:round" />
    </clipPath>
  </defs>
  <rect
     style="opacity:1;fill:#30a800;fill-opacity:1;fill-rule:nonzero;stroke:none;stroke-width:1.60000014;stroke-linecap:butt;stroke-linejoin:miter;stroke-miterlimit:4;stroke-dasharray:none;stroke-dashoffset:0;stroke-opacity:1"
     id="rect3207"
     width="28.34646"
     height="2.585197"
     x="-4.7308239e-07"
     y="-7.1054274e-15" />
</svg>
