<?xml version="1.0" encoding="UTF-8" standalone="no"?>
<!-- Created with Inkscape (http://www.inkscape.org/) -->

<svg
   xmlns:dc="http://purl.org/dc/elements/1.1/"
   xmlns:cc="http://creativecommons.org/ns#"
   xmlns:rdf="http://www.w3.org/1999/02/22-rdf-syntax-ns#"
   xmlns:svg="http://www.w3.org/2000/svg"
   xmlns="http://www.w3.org/2000/svg"
   xmlns:sodipodi="http://sodipodi.sourceforge.net/DTD/sodipodi-0.dtd"
   xmlns:inkscape="http://www.inkscape.org/namespaces/inkscape"
   version="1.1"
   id="svg853"
   xml:space="preserve"
   width="10mm"
   height="10mm"
   viewBox="0 0 37.795275 37.795275"
   sodipodi:docname="GitHub.svg"
   inkscape:version="0.92.2 (5c3e80d, 2017-08-06)"><metadata
     id="metadata859"><rdf:RDF><cc:Work
         rdf:about=""><dc:format>image/svg+xml</dc:format><dc:type
           rdf:resource="http://purl.org/dc/dcmitype/StillImage" /><dc:title></dc:title></cc:Work></rdf:RDF></metadata><defs
     id="defs857" /><sodipodi:namedview
     pagecolor="#ffffff"
     bordercolor="#666666"
     borderopacity="1"
     objecttolerance="10"
     gridtolerance="10"
     guidetolerance="10"
     inkscape:pageopacity="0"
     inkscape:pageshadow="2"
     inkscape:window-width="1920"
     inkscape:window-height="1027"
     id="namedview855"
     showgrid="false"
     units="mm"
     inkscape:zoom="6.881701"
     inkscape:cx="11.51961"
     inkscape:cy="20.293918"
     inkscape:window-x="0"
     inkscape:window-y="0"
     inkscape:window-maximized="1"
     inkscape:current-layer="g861" /><g
     id="g861"
     inkscape:groupmode="layer"
     inkscape:label="ink_ext_XXXXXX"
     transform="matrix(1.3333333,0,0,-1.3333333,0,37.795264)"><rect
       style="opacity:1;fill:#ffffff;fill-opacity:1;fill-rule:evenodd;stroke:none;stroke-width:1.65070844;stroke-linecap:round;stroke-linejoin:round;stroke-miterlimit:4;stroke-dasharray:none;stroke-dashoffset:0;stroke-opacity:1"
       id="rect1138"
       width="28.346457"
       height="28.346457"
       x="4.3693242e-07"
       y="-28.346449"
       transform="scale(1,-1)" /><path
       inkscape:connector-curvature="0"
       id="path869"
       style="fill:#1b1817;fill-opacity:1;fill-rule:evenodd;stroke:none;stroke-width:0.02229694"
       d="m 14.173338,27.305428 c -7.435362,0 -13.46467905,-6.028202 -13.46467905,-13.464679 0,-5.9490482 3.85804005,-10.9961842 9.20796905,-12.7765952 0.672922,-0.12463996 0.919972,0.29209 0.919972,0.647726 0,0.321076 -0.01249,1.381742 -0.01828,2.506846 -3.745887,-0.814508 -4.536314,1.588657 -4.536314,1.588657 -0.612497,1.556327 -1.49501,1.970158 -1.49501,1.970158 -1.221649,0.835689 0.09209,0.818521 0.09209,0.818521 1.352087,-0.09476 2.064029,-1.387762 2.064029,-1.387762 1.200913,-2.058231 3.149889,-1.463126 3.918242,-1.119084 0.120849,0.87025 0.469796,1.464464 0.854864,1.800479 -2.990689,0.340474 -6.134558,1.49501 -6.134558,6.6543002 0,1.470037 0.525985,2.671174 1.387316,3.614111 -0.139802,0.33936 -0.60068,1.708615 0.130437,3.563275 0,0 1.130678,0.361879 3.703746,-1.380181 1.074043,0.298333 2.225904,0.447946 3.370183,0.453074 1.144279,-0.0051 2.297031,-0.154741 3.373081,-0.453074 2.569946,1.74206 3.699064,1.380181 3.699064,1.380181 0.7329,-1.85466 0.271799,-3.223915 0.131997,-3.563275 0.863338,-0.942937 1.385756,-2.144074 1.385756,-3.614111 0,-5.1715542 -3.14989,-6.3102592 -6.14816,-6.6435982 0.482952,-0.417845 0.913283,-1.237257 0.913283,-2.493467 0,-1.801593 -0.01561,-3.251564 -0.01561,-3.69505 0,-0.358312 0.242368,-0.77816296 0.924877,-0.645942 5.347031,1.782417 9.200165,6.82777 9.200165,12.7748112 0,7.436477 -6.028424,13.464679 -13.464455,13.464679" /><path
       inkscape:connector-curvature="0"
       id="path871"
       style="fill:#1b1817;fill-opacity:1;fill-rule:nonzero;stroke:none;stroke-width:0.1"
       d="m 313.093,406.851 c -0.133,-0.301 -0.605,-0.39 -1.035,-0.184 -0.438,0.197 -0.684,0.606 -0.542,0.907 0.13,0.308 0.603,0.394 1.04,0.189 0.439,-0.198 0.689,-0.611 0.537,-0.912 v 0" /><path
       inkscape:connector-curvature="0"
       id="path873"
       style="fill:#1b1817;fill-opacity:1;fill-rule:nonzero;stroke:none;stroke-width:0.1"
       d="m 315.539,404.123 c -0.288,-0.267 -0.851,-0.143 -1.233,0.279 -0.395,0.421 -0.469,0.984 -0.177,1.255 0.297,0.266 0.843,0.141 1.239,-0.279 0.395,-0.426 0.472,-0.985 0.171,-1.255 v 0" /><path
       inkscape:connector-curvature="0"
       id="path875"
       style="fill:#1b1817;fill-opacity:1;fill-rule:nonzero;stroke:none;stroke-width:0.1"
       d="m 317.92,400.645 c -0.37,-0.257 -0.975,-0.016 -1.349,0.521 -0.37,0.537 -0.37,1.181 0.008,1.439 0.375,0.258 0.971,0.025 1.35,-0.507 0.369,-0.546 0.369,-1.19 -0.009,-1.453 v 0" /><path
       inkscape:connector-curvature="0"
       id="path877"
       style="fill:#1b1817;fill-opacity:1;fill-rule:nonzero;stroke:none;stroke-width:0.1"
       d="m 321.182,397.285 c -0.331,-0.365 -1.036,-0.267 -1.552,0.231 -0.528,0.487 -0.675,1.178 -0.343,1.543 0.335,0.366 1.044,0.263 1.564,-0.231 0.524,-0.486 0.684,-1.182 0.331,-1.543 v 0" /><path
       inkscape:connector-curvature="0"
       id="path879"
       style="fill:#1b1817;fill-opacity:1;fill-rule:nonzero;stroke:none;stroke-width:0.1"
       d="m 325.682,395.334 c -0.146,-0.473 -0.825,-0.688 -1.509,-0.487 -0.683,0.207 -1.13,0.761 -0.992,1.239 0.142,0.476 0.824,0.7 1.513,0.485 0.682,-0.206 1.13,-0.756 0.988,-1.237 v 0" /><path
       inkscape:connector-curvature="0"
       id="path881"
       style="fill:#1b1817;fill-opacity:1;fill-rule:nonzero;stroke:none;stroke-width:0.1"
       d="m 330.624,394.972 c 0.017,-0.498 -0.563,-0.911 -1.281,-0.92 -0.722,-0.016 -1.306,0.387 -1.314,0.877 0,0.503 0.567,0.912 1.289,0.924 0.718,0.014 1.306,-0.386 1.306,-0.881 v 0" /><path
       inkscape:connector-curvature="0"
       id="path883"
       style="fill:#1b1817;fill-opacity:1;fill-rule:nonzero;stroke:none;stroke-width:0.1"
       d="m 335.223,395.755 c 0.086,-0.486 -0.413,-0.985 -1.126,-1.118 -0.701,-0.128 -1.35,0.172 -1.439,0.654 -0.087,0.498 0.421,0.997 1.121,1.126 0.714,0.124 1.353,-0.168 1.444,-0.662 v 0" /></g></svg>