<?xml version="1.0" encoding="UTF-8" standalone="no"?>
<svg
   xmlns:dc="http://purl.org/dc/elements/1.1/"
   xmlns:cc="http://creativecommons.org/ns#"
   xmlns:rdf="http://www.w3.org/1999/02/22-rdf-syntax-ns#"
   xmlns:svg="http://www.w3.org/2000/svg"
   xmlns="http://www.w3.org/2000/svg"
   xmlns:sodipodi="http://sodipodi.sourceforge.net/DTD/sodipodi-0.dtd"
   xmlns:inkscape="http://www.inkscape.org/namespaces/inkscape"
   enable-background="new 0 0 32 32"
   height="10mm"
   id="svg2"
   version="1.1"
   viewBox="0 0 37.795278 37.795278"
   width="10mm"
   xml:space="preserve"
   sodipodi:docname="if_book_text_103408.svg"
   inkscape:version="0.92.2 (5c3e80d, 2017-08-06)"
   inkscape:export-filename="/home/wouter/Desktop/if_book_text_103408.svg.png"
   inkscape:export-xdpi="162.56"
   inkscape:export-ydpi="162.56"><metadata
     id="metadata21"><rdf:RDF><cc:Work
         rdf:about=""><dc:format>image/svg+xml</dc:format><dc:type
           rdf:resource="http://purl.org/dc/dcmitype/StillImage" /><dc:title></dc:title></cc:Work></rdf:RDF></metadata><defs
     id="defs19" /><sodipodi:namedview
     pagecolor="#ffffff"
     bordercolor="#666666"
     borderopacity="1"
     objecttolerance="10"
     gridtolerance="10"
     guidetolerance="10"
     inkscape:pageopacity="0"
     inkscape:pageshadow="2"
     inkscape:window-width="1920"
     inkscape:window-height="1027"
     id="namedview17"
     showgrid="false"
     units="mm"
     inkscape:zoom="3.6875"
     inkscape:cx="-29.954362"
     inkscape:cy="14.798249"
     inkscape:window-x="0"
     inkscape:window-y="0"
     inkscape:window-maximized="1"
     inkscape:current-layer="svg2" /><rect
     style="opacity:1;fill:#ffffff;fill-opacity:1;fill-rule:evenodd;stroke:none;stroke-width:1.23507047;stroke-linecap:round;stroke-linejoin:round;stroke-miterlimit:4;stroke-dasharray:none;stroke-dashoffset:0;stroke-opacity:1"
     id="rect831"
     width="37.795277"
     height="37.795277"
     x="-5.2564724e-07"
     y="-5.2564724e-07" /><g
     id="book_x5F_text"
     transform="matrix(1.0847456,0,0,1.0847456,3.7101447,0.4569626)"><g
       id="g7"><path
         d="m 27.002,1 v 1.999 h -2 V 5 h 2 v 28 h -24 c 0,0 -2,0 -2,-2 V 4.018 C 1.002,4.012 1.001,4.006 1.001,4 0.966,2.645 1.808,1.686 2.556,1.354 3.294,0.992 3.918,1.004 4.002,1 h 23 M 3.998,5 C 4,5 4.002,5 4.002,5 h 19 V 2.999 h -19 C 4,3.005 3.97,2.997 3.853,3.018 3.738,3.037 3.579,3.078 3.449,3.143 3.196,3.314 3.035,3.353 3.002,4 3.017,4.5 3.136,4.609 3.274,4.743 3.418,4.869 3.675,4.955 3.853,4.982 3.948,4.999 3.986,5 3.998,5 m 1.004,26 h 20 V 7 h -20 v 24"
         id="path5"
         inkscape:connector-curvature="0" /></g><polygon
       points="19,21 19,23 7,23 7,21 "
       id="polygon9" /><polygon
       points="23,13 23,15 7,15 7,13 "
       id="polygon11" /><polygon
       points="23,17 23,19 7,19 7,17 "
       id="polygon13" /></g></svg>